<svg width="400" height="348" viewBox="0 0 400 348" fill="none" xmlns="http://www.w3.org/2000/svg">
<path fill-rule="evenodd" clip-rule="evenodd" d="M350.024 10.6863C350.024 7.34308 348.158 3.78649 345.491 2.04736C343.555 0.784884 331.778 0.674057 199.931 0.674057C63.0531 0.674057 54.0563 0.362281 52.2532 3.81129C51.9761 4.34144 51.8689 4.96046 51.4933 5.68312C48.9887 10.503 49.7164 12.5638 60.4374 31.0301C81.0612 66.551 92.1113 85.7764 92.1113 86.1364C92.1113 86.3398 72.9445 86.5056 49.518 86.5056C7.59203 86.5056 6.88948 86.5331 4.7014 88.2456C2.04859 90.3222 -0.000488281 94.0113 -0.000488281 96.7095C-0.000488281 98.5203 5.06733 107.778 21.0981 135.255C24.5741 141.213 32.3023 154.525 38.272 164.837C44.2416 175.15 55.5438 194.649 63.3883 208.17C71.2329 221.69 86.7789 248.502 97.9336 267.752C109.089 287.001 119.994 305.751 122.167 309.418C124.34 313.084 129.8 322.489 134.3 330.317C143.13 345.676 144.721 347.333 150.635 347.333C153.206 347.333 154.661 346.766 156.517 345.042C157.873 343.781 166.016 330.563 174.611 315.667C198.25 274.701 199.643 272.335 200.115 272.337C200.355 272.339 202.431 275.621 204.728 279.629C228.608 321.305 241.615 343.134 243.705 345.042C245.661 346.827 247.042 347.333 249.957 347.333C255.404 347.333 257.403 345.072 267.634 327.334C277.921 309.498 286.961 293.897 317.337 241.562C329.422 220.74 347.039 190.366 356.486 174.063C365.934 157.76 378.593 135.984 384.618 125.671C400.682 98.1753 400.744 98.0445 399.549 94.0754C399.007 92.2713 397.409 89.8297 396.001 88.6505L393.44 86.5056H350.708C316.864 86.5056 308.061 86.2889 308.382 85.4639C308.775 84.4573 314.257 74.9342 338.574 33.0192C346.586 19.2087 350.024 12.5021 350.024 10.6863ZM137.748 70.5076C132.682 61.7311 127.682 52.928 126.637 50.9447L124.737 47.3397H200.194H275.65L272.852 52.2163C271.314 54.8988 266.286 63.6944 261.681 71.7609L253.307 86.4289L200.133 86.4464L146.96 86.4647L137.748 70.5076ZM80.4215 143.588C78.2543 139.921 76.0252 136.071 75.4675 135.033L74.4526 133.145L97.1774 133.366L119.902 133.588L146.237 178.935C162.542 207.013 172.382 224.774 172.074 225.574C171.483 227.104 151.562 261.603 150.683 262.618C150.349 263.003 148.02 259.815 145.506 255.535C137.536 241.961 119.673 211.243 101.731 180.254C92.1775 163.754 82.5886 147.254 80.4215 143.588ZM200.276 176.821C199.761 177.128 176.658 137.962 175.389 134.63C174.867 133.26 176.384 133.171 200.133 133.171C221.605 133.171 225.365 133.35 224.979 134.35C224.729 135 220.101 143.155 214.696 152.475C209.291 161.795 203.962 171.01 202.852 172.955C201.744 174.898 200.584 176.638 200.276 176.821ZM257.465 172.754C268.853 153.046 278.707 136.078 279.365 135.046C280.555 133.179 280.648 133.171 302.821 133.171C323.566 133.171 325.044 133.27 324.527 134.61C324.012 135.945 317.603 147.103 294.717 186.503C289.792 194.982 277.953 215.42 268.408 231.919C258.864 248.419 250.765 262.224 250.41 262.597C249.769 263.273 227.767 226.405 227.767 224.654C227.767 224.146 229.791 220.324 232.264 216.159C234.738 211.994 246.079 192.462 257.465 172.754Z" fill="#EC1B2E"/>
</svg>
